<svg width="171" height="133" viewBox="0 0 171 133" fill="none" xmlns="http://www.w3.org/2000/svg">
<mask id="mask0_1439_28311" style="mask-type:luminance" maskUnits="userSpaceOnUse" x="35" y="0" width="102" height="100">
<path d="M35.7162 0H136.192V99.188H35.7162V0Z" fill="white"/>
</mask>
<g mask="url(#mask0_1439_28311)">
<path d="M80.8107 1.99045C67.5161 11.4004 54.2182 20.8103 40.9236 30.2171C38.047 32.2525 35.7162 36.7568 35.7162 40.2787V92.8858C35.7162 96.4077 38.5735 99.2618 42.0954 99.2618H129.941C133.463 99.2618 136.317 96.4077 136.317 92.8858V40.2787C136.317 36.7568 133.986 32.2525 131.113 30.2171C117.815 20.8103 104.52 11.4004 91.2223 1.99045C88.3489 -0.0449954 83.6873 -0.0449954 80.8107 1.99045Z" fill="#FCF9F2"/>
</g>
<mask id="mask1_1439_28311" style="mask-type:luminance" maskUnits="userSpaceOnUse" x="64" y="31" width="52" height="54">
<path d="M64.0681 31.2607H115.792V84.3494H64.0681V31.2607Z" fill="white"/>
</mask>
<g mask="url(#mask1_1439_28311)">
<path d="M83.9153 66.881C83.8736 66.8392 83.8318 66.8007 83.7901 66.759C82.8591 67.4813 81.0708 69.4173 80.8974 70.0112C81.9023 68.9678 82.9104 67.9244 83.9153 66.881ZM66.5241 80.9429C65.1596 81.8322 64.9766 82.2271 66.1709 83.2866C66.6044 83.6172 67.3524 82.6894 67.7409 82.2399C67.2978 81.768 66.9126 81.3571 66.5241 80.9429ZM80.1301 70.8106C80.0884 70.7625 80.0467 70.7175 80.0049 70.6726C67.5675 83.354 69.2755 81.6813 69.2562 81.9863C69.3365 81.9703 69.4777 81.9863 69.5355 81.9253C73.0735 78.2268 76.6018 74.5187 80.1301 70.8106ZM67.1822 80.1018C72.7396 74.3678 78.2873 68.6435 83.819 62.9353C83.4466 62.3478 83.1031 62.5243 82.7916 62.8293C79.9568 65.5968 77.2535 68.4316 74.4636 71.2344C66.065 79.8738 66.3989 78.8433 67.1822 80.1018ZM109.901 33.9959C109.243 33.7584 107.805 34.4229 107.503 34.4968C102.183 36.5451 97.7621 43.454 96.86 44.5777C94.7924 47.3837 92.5708 50.0997 91.0554 53.2653C91.7649 52.9635 92.0828 52.2347 92.59 51.7114C93.2675 50.8831 93.9577 50.0805 94.6512 49.2747C102.626 40.1922 102.469 39.0525 109.901 33.9959ZM109.172 33.0007C109.191 32.9397 109.208 32.8755 109.227 32.8113C106.752 31.9509 104.379 32.6283 102.193 33.7006C99.91 34.8178 98.0864 36.5675 96.6834 38.7442C95.0461 41.0911 93.7105 43.5825 92.5419 46.1894C91.4985 48.4239 90.378 50.4401 89.4181 52.7323C89.6075 52.636 89.707 52.6103 89.7295 52.5815C89.9414 52.2379 90.1918 51.8045 90.4133 51.4321C93.1326 46.5554 95.7106 42.9404 99.2454 39.03C102.822 34.9912 104.443 34.2624 109.172 33.0007ZM114.222 39.7267C114.161 39.7202 114.1 39.7138 114.036 39.7074C112.62 44.841 108.187 48.09 104.154 51.1496C96.8889 56.5175 92.6992 59.1983 92.4873 59.6574C93.001 59.7119 93.3541 59.3363 93.7972 59.1694C94.7571 58.6942 95.7106 58.2319 96.6738 57.7568C107.14 52.8222 115.041 46.1187 114.222 39.7267ZM88.5159 59.3395C88.5641 59.3813 88.6155 59.4198 88.6636 59.4583C92.3493 56.0969 96.0092 52.7002 99.8586 49.5283C104.947 44.8089 111.702 39.8037 111.651 34.6894C106.899 36.834 103.814 41.0686 100.497 44.8057C94.1792 51.9458 92.4167 53.7019 88.5159 59.3395ZM92.7795 57.76C94.5035 56.5464 96.1505 55.1819 97.8777 53.962C100.009 52.453 102.231 51.0565 104.27 49.4159C111.908 42.8087 112.145 40.449 112.482 38.4938C112.203 38.7057 112.078 38.9658 111.885 39.2451C110.627 41.2645 109.615 42.4909 108.203 43.9324C103.117 48.8477 97.4026 53.0662 92.3075 57.9847C92.3396 58.0136 92.3685 58.0425 92.4006 58.0714C92.5258 57.9687 92.6543 57.8627 92.7795 57.76ZM65.7118 79.9573C65.4518 79.2863 65.7825 78.8625 66.187 78.4644C67.529 77.0935 68.8132 75.7098 70.1263 74.3293C73.9628 70.2584 77.8378 66.2389 81.7257 62.2193C83.2122 61.0828 83.9121 60.3316 84.7982 58.935C86.5351 55.9782 87.6587 52.6713 89.0553 49.5315C91.0586 44.9726 93.6945 39.2033 95.5084 37.1518C104.199 26.4898 116.219 31.9188 115.779 40.6256C115.789 44.1186 114.588 47.0177 112.373 49.5026C109.008 53.2171 104.507 55.0439 100.289 57.1436C95.3286 59.6606 90.1244 62.2418 88.853 63.3623C88.2495 63.8342 87.6876 64.3318 87.1451 64.8776C86.1466 66.0495 85.1995 67.1699 84.0983 68.2454C67.0635 85.794 70.8454 82.3363 69.1085 82.8499C68.5274 83.0522 68.2256 83.8099 67.6702 84.0763C66.3732 84.8533 64.707 83.8035 64.1836 82.5289C63.6956 81.3603 64.9156 80.6283 65.7118 79.9573Z" fill="#16336B"/>
</g>
<path d="M66.7585 39.6077C65.6573 38.0603 64.3378 36.6605 62.8321 35.4662C61.7309 34.487 60.2797 33.9444 59.3519 35.2736C57.5701 37.5883 62.2863 41.3575 63.6636 42.6288C64.707 41.6111 65.6862 40.6544 66.7585 39.6077ZM62.3697 44.3336C59.7404 41.579 57.1559 39.1358 56.9408 37.7489C56.2377 34.4934 59.384 31.9668 62.4982 33.1482C64.9542 33.9605 67.4006 36.8596 68.4376 38.3492C71.2243 36.7183 72.6754 36.76 74.9613 38.9239C76.1813 39.9834 77.3595 41.0364 78.5474 42.1312C80.6856 44.1153 82.7018 46.186 84.7115 48.2921C86.5383 50.273 87.312 50.5491 86.4259 52.2314C85.6747 52.5011 85.2605 52.0195 84.8046 51.5058C84.3423 50.9986 83.9025 50.5106 83.4402 50.0065C80.692 47.0111 76.4734 42.4426 74.3866 40.8727C72.4025 39.4793 71.6127 38.1951 69.8149 39.8261C69.0476 40.4617 68.3156 41.0364 67.6606 41.7748C62.5527 47.5248 62.5238 46.6548 66.1774 51.0371C69.9497 55.1882 73.9596 59.0954 78.0433 62.9319C78.7561 63.6479 78.5281 64.1166 77.825 64.5372C77.1155 64.8358 76.7206 64.4248 76.3418 64.0492C75.8345 63.574 75.3497 63.1085 74.8553 62.6237C72.8648 60.6429 70.9161 58.6267 68.8902 56.6811C61.8336 49.7336 59.7211 48.3531 62.3697 44.3336Z" fill="#16336B"/>
<mask id="mask2_1439_28311" style="mask-type:luminance" maskUnits="userSpaceOnUse" x="83" y="61" width="30" height="27">
<path d="M83.4112 61.0474H112.376V87.7811H83.4112V61.0474Z" fill="white"/>
</mask>
<g mask="url(#mask2_1439_28311)">
<path d="M102.456 81.0617C103.454 82.7279 106.726 85.932 107.984 86.1374C109.352 86.4553 110.299 85.1005 110.216 83.9094C110.065 81.9702 106.347 78.8528 105.58 78.0245C104.495 79.0808 103.493 80.0536 102.456 81.0617ZM95.3029 61.5676C97.4796 60.5434 97.4154 61.2048 98.5198 62.2129C99.804 63.4874 101.088 64.7427 102.376 66.0141C107.252 70.9069 109.432 72.5795 106.735 76.4161C112.601 82.1308 112.158 82.5802 112.322 83.1677C112.489 84.0988 112.19 85.1679 111.609 86.0604C110.267 88.205 107.413 88.1344 105.467 87.0043C103.551 85.7875 102.106 84.0795 100.693 82.3459C96.5999 84.5964 95.4409 82.7504 93.8646 81.4373C92.0988 79.938 90.455 78.3327 88.8145 76.705C87.7133 75.5492 83.1929 71.3563 83.4273 71.0257C83.3438 70.7335 83.7997 70.2166 84.1978 70.0368C85.1321 69.6419 85.6971 70.7239 86.2493 71.2344C88.7053 73.806 95.2226 81.2479 97.8071 81.6299C98.6964 81.7969 101.592 78.8849 102.234 78.2107C106.398 73.5748 106.122 73.4753 104.164 71.0289C101.422 67.6611 98.1955 64.7909 95.3029 61.5676Z" fill="#16336B"/>
</g>
<path d="M79.6646 61.7987C78.4317 61.2626 77.6066 60.0554 76.5568 59.2271C73.3495 56.312 66.9671 50.379 65.8434 48.4945C65.3362 46.9663 67.5418 47.0241 68.1678 47.9134C79.7673 60.0041 82.3999 61.4103 79.6646 61.7987Z" fill="#16336B"/>
<path d="M87.3859 67.549C87.5946 67.61 88.0793 67.931 88.3041 68.175C90.4968 70.1527 92.574 72.1528 94.6223 74.2589C95.3029 75.1289 98.7414 77.8193 96.9563 78.5385C95.5919 79.0008 94.9145 77.768 94.16 77.0617C92.696 75.5431 91.2545 74.0406 89.7648 72.5477C88.1371 70.8943 85.8866 68.8428 85.8769 68.6726C85.7293 67.9407 86.5833 67.4848 87.3859 67.549Z" fill="#16336B"/>
<path d="M17.2785 115.908C18.7938 115.429 20.0331 114.412 20.3413 112.623C20.8935 109.4 17.5771 107.233 14.3152 106.674L7.78828 105.557C5.36115 105.14 3.07528 105.076 2.81844 106.588C2.70929 107.227 3.00465 108.135 3.28076 108.675C4.1219 110.456 3.07207 119.452 1.34483 120.919C0.811889 121.401 0.144107 122.188 0.0221089 122.903C-0.244362 124.457 1.93877 125.119 4.3659 125.533L12.2059 126.875C15.6283 127.462 20.1936 125.908 20.8357 122.168C21.3109 119.385 19.5579 117.198 17.2785 115.908ZM12.8448 124.57C12.1192 124.977 11.628 124.974 10.9121 124.852C8.72253 124.477 8.31159 120.187 9.02753 116.011C15.8402 115.211 15.1692 123.205 12.8448 124.57ZM13.7694 108.177C14.0873 108.232 14.3923 108.366 14.5977 108.607C16.2768 110.286 12.8159 114.691 9.43526 114.113C10.2732 110.652 11.8592 107.849 13.7694 108.177Z" fill="#FCF9F2"/>
<path d="M31.1704 115.489C28.5249 115.158 26.6275 115.694 25.5006 116.571C21.6962 119.678 28.1621 121.99 29.4367 119.585C29.9183 118.667 30.1944 116.465 31.3245 117.177C32.4513 117.926 32.5444 120.786 29.7128 121.287C27.0031 121.804 23.5679 121.293 22.4282 123.592C21.0926 126.151 23.1056 128.6 26.4702 129.021C29.1156 129.352 30.3517 127.92 31.4721 128.058C32.6343 128.202 33.9635 129.955 36.0856 130.222C37.6491 130.414 39.0489 129.939 39.264 129.194C39.4149 128.642 38.7953 128.401 38.41 127.907C36.0053 125.001 40.8243 116.693 31.1704 115.489ZM28.1075 125.034C28.0658 123.727 29.6935 123.403 30.6856 122.629C31.2699 122.173 31.623 122.298 31.6583 122.671C31.729 123.412 31.668 124.542 31.2057 125.949C31.0965 126.18 30.8429 126.597 30.3902 126.623C29.4078 126.661 28.1268 126.176 28.1075 125.034Z" fill="#FCF9F2"/>
<path d="M52.7414 122.011L55.5089 120.326C56.7417 119.574 58.1254 119.481 58.7803 118.884C59.3903 118.367 57.2682 118.037 56.3436 117.963C55.6597 117.908 54.1669 117.831 53.6821 118.319C53.3321 118.656 53.8876 119.308 53.3707 119.712L48.6416 122.656C48.9466 118.268 49.8359 113.195 50.0125 112.521C50.8215 109.953 46.8437 111.619 45.3766 112.232C43.9094 112.845 41.7551 113.484 41.4983 114.678C41.3667 115.317 41.906 115.645 42.2656 116.239C43.0233 117.391 42.7407 119.436 42.5321 122.053C42.3491 124.345 42.0505 127.604 41.1451 128.3C40.7534 128.634 40.2943 128.801 40.3361 129.331C40.4003 130.551 43.3218 130.984 44.8918 131.11C46.4617 131.235 49.5759 131.277 49.8327 130.082C49.9515 129.607 49.4796 129.447 49.1489 129.016C48.7765 128.583 48.6545 127.601 48.5517 126.336C48.4201 124.907 49.3608 124.82 49.7268 124.811C51.3095 124.734 52.1892 126.422 52.0865 127.71C51.8264 131.01 54.7929 131.893 56.4014 132.021C57.9713 132.147 60.0003 132.105 60.2572 130.911C60.3824 130.352 59.8334 130.147 59.3807 129.707C57.9874 128.381 57.6246 121.709 52.7414 122.011Z" fill="#FCF9F2"/>
<path d="M75.8997 126.542C73.2125 129.351 69.5686 129.582 68.4546 126.834C68.9715 127.097 69.6938 127.203 70.3809 127.229C73.4084 127.338 76.9945 124.278 75.8708 121.813C74.9719 119.88 72.5897 118.743 69.8865 118.644C65.7706 118.496 62.268 121.517 62.1267 125.392C61.9855 129.226 65.2602 132.497 69.376 132.645C72.9653 132.776 76.0763 130.548 76.9174 127.428L77.0138 127.026C77.1197 126.343 76.5322 125.877 75.8997 126.542ZM69.8287 120.22C70.8368 120.256 70.9363 124.217 68.461 125.623C68.339 125.659 68.2555 125.697 68.2106 125.774C68.1432 125.408 68.1175 125.046 68.1335 124.603C68.1978 122.866 68.7789 120.182 69.8287 120.22Z" fill="#FCF9F2"/>
<path d="M101.67 114.406C101.657 112.872 99.3901 112.57 96.9277 112.596L96.6066 112.599C94.1024 112.621 91.8455 112.968 91.8583 114.503C91.8647 114.988 92.1537 115.549 92.4009 116.031C93.3447 117.758 91.1905 120.404 89.6302 121.71C88.5098 122.651 87.3058 123.714 86.516 125.335C86.2817 122.028 86.683 117.623 87.4375 116.525C87.797 116.037 88.2337 115.183 88.2272 114.538C88.2112 113.003 85.9478 112.705 83.4853 112.727L83.1193 112.731C80.6569 112.756 78.3999 113.1 78.416 114.634C78.4224 115.283 78.8751 116.124 79.2411 116.606C80.3904 118.211 80.9619 127.248 79.5268 128.998C79.087 129.57 78.5733 130.462 78.5797 131.188C78.5958 132.764 80.8592 133.024 83.3216 132.998L83.6844 132.995C86.1468 132.969 88.4038 132.664 88.391 131.091C88.3878 130.767 88.2625 130.366 88.0956 130.003C86.7761 127.313 89.1326 124.622 90.8534 123.152C91.8166 122.336 92.8568 121.437 93.6112 120.179C94.0061 123.444 93.9291 127.727 93.0109 128.866C92.5325 129.435 92.0156 130.327 92.022 131.056C92.0381 132.629 94.3015 132.889 96.8057 132.867L97.1299 132.864C99.5924 132.838 101.849 132.533 101.833 130.96C101.827 130.231 101.294 129.348 100.844 128.786C99.374 127.065 99.7689 118.018 100.922 116.39C101.243 115.903 101.676 115.052 101.67 114.406Z" fill="#FCF9F2"/>
<path d="M110.317 118.26C106.165 118.494 102.997 121.826 103.215 125.695C103.433 129.567 106.955 132.482 111.106 132.248C115.257 132.013 118.471 128.716 118.253 124.848C118.031 120.979 114.468 118.025 110.317 118.26ZM111.026 130.797C110.098 130.848 109.235 128.43 109.064 125.448C108.897 122.465 109.485 120.003 110.413 119.952C111.341 119.9 112.243 122.276 112.41 125.258C112.58 128.241 111.951 130.742 111.026 130.797Z" fill="#FCF9F2"/>
<path d="M138.363 127.533C136.327 125.783 136.786 118.518 136.915 117.33C137.223 114.701 133.601 117.048 132.301 117.863C130.966 118.727 128.959 119.777 128.917 120.997C128.895 121.607 129.492 121.873 129.945 122.355C130.307 122.766 130.927 123.681 131.149 125.119L131.178 125.398C131.287 126.525 131.271 127.581 131.036 128.092C130.734 128.727 130.33 129.174 129.848 129.222C129.527 129.254 129.238 129.199 128.937 129.026C126.567 126.785 127.306 119.452 127.431 118.261C127.742 115.635 124.156 117.975 122.817 118.797C121.524 119.655 119.552 120.659 119.427 121.847L119.443 122.011C119.459 122.576 120.008 122.807 120.461 123.289C121.411 124.29 121.543 126.021 121.655 127.186L121.674 127.389C122.169 130.342 125.903 131.193 128.314 130.955L128.474 130.939C128.879 130.901 129.12 130.875 129.312 130.776C130.693 130.397 131.222 129.572 132.025 129.495C132.869 129.411 134.263 130.371 136.07 130.191C137.637 130.037 139.184 129.681 139.226 128.461C139.258 127.97 138.725 127.902 138.363 127.533Z" fill="#FCF9F2"/>
<path d="M153.56 116.418C152.382 114.707 148.95 114.373 146.15 114.765L146.073 114.774C142.115 115.33 139.151 117.458 139.861 120.213C140.795 123.953 149.213 123.221 148.696 126.515C148.468 127.812 146.452 128.259 146.442 126.14C146.381 122.804 138.92 124.258 140.808 126.968C141.986 128.679 145.377 129.019 148.215 128.621L148.295 128.612C152.173 128.066 155.185 125.401 154.53 123.334C153.486 119.972 145.367 120.216 145.672 116.871C145.82 115.587 147.919 115.169 147.926 117.247C147.987 120.582 155.448 119.128 153.56 116.418Z" fill="#FCF9F2"/>
<path d="M169.627 118.692C167.592 122.006 164.08 123.001 162.413 120.548C162.972 120.696 163.701 120.648 164.378 120.526C167.361 119.996 170.221 116.249 168.603 114.076C167.319 112.377 164.747 111.767 162.086 112.239C158.031 112.962 155.241 116.654 155.922 120.471C156.593 124.247 160.481 126.754 164.536 126.035C168.073 125.406 170.645 122.571 170.812 119.344L170.818 118.93C170.78 118.24 170.106 117.909 169.627 118.692ZM162.362 113.79C163.354 113.613 164.285 117.469 162.163 119.363C162.051 119.424 161.977 119.476 161.951 119.562C161.807 119.219 161.704 118.869 161.627 118.432C161.322 116.721 161.328 113.973 162.362 113.79Z" fill="#FCF9F2"/>
</svg>
