<svg width="171" height="133" viewBox="0 0 171 133" fill="none" xmlns="http://www.w3.org/2000/svg">
<mask id="mask0_1944_5960" style="mask-type:luminance" maskUnits="userSpaceOnUse" x="35" y="0" width="102" height="100">
<path d="M35.7162 0H136.192V99.188H35.7162V0Z" fill="white"/>
</mask>
<g mask="url(#mask0_1944_5960)">
<path d="M80.8106 1.99045C67.516 11.4004 54.2181 20.8103 40.9235 30.2171C38.0469 32.2525 35.7161 36.7568 35.7161 40.2787V92.8858C35.7161 96.4077 38.5734 99.2618 42.0953 99.2618H129.941C133.463 99.2618 136.317 96.4077 136.317 92.8858V40.2787C136.317 36.7568 133.986 32.2525 131.113 30.2171C117.815 20.8103 104.52 11.4004 91.2222 1.99045C88.3488 -0.0449954 83.6872 -0.0449954 80.8106 1.99045Z" fill="#16336B"/>
</g>
<mask id="mask1_1944_5960" style="mask-type:luminance" maskUnits="userSpaceOnUse" x="64" y="31" width="52" height="54">
<path d="M64.0677 31.2607H115.792V84.3494H64.0677V31.2607Z" fill="white"/>
</mask>
<g mask="url(#mask1_1944_5960)">
<path d="M83.9152 66.8815C83.8735 66.8397 83.8318 66.8012 83.79 66.7595C82.859 67.4818 81.0708 69.4177 80.8974 70.0117C81.9023 68.9683 82.9104 67.9249 83.9152 66.8815ZM66.524 80.9434C65.1596 81.8327 64.9766 82.2276 66.1709 83.2871C66.6043 83.6177 67.3523 82.6899 67.7408 82.2404C67.2978 81.7685 66.9125 81.3576 66.524 80.9434ZM80.1301 70.8111C80.0883 70.7629 80.0466 70.718 80.0049 70.673C67.5674 83.3545 69.2754 81.6818 69.2562 81.9868C69.3364 81.9708 69.4777 81.9868 69.5355 81.9258C73.0734 78.2273 76.6018 74.5192 80.1301 70.8111ZM67.1822 80.1022C72.7395 74.3683 78.2873 68.644 83.8189 62.9358C83.4465 62.3482 83.103 62.5248 82.7916 62.8298C79.9567 65.5973 77.2535 68.4321 74.4636 71.2349C66.0649 79.8743 66.3988 78.8437 67.1822 80.1022ZM109.901 33.9964C109.243 33.7588 107.804 34.4234 107.503 34.4973C102.183 36.5456 97.7621 43.4545 96.8599 44.5782C94.7924 47.3842 92.5707 50.1002 91.0554 53.2658C91.7649 52.964 92.0827 52.2352 92.59 51.7119C93.2674 50.8836 93.9577 50.081 94.6511 49.2751C102.626 40.1927 102.469 39.0529 109.901 33.9964ZM109.172 33.0012C109.191 32.9402 109.207 32.876 109.227 32.8118C106.751 31.9513 104.379 32.6288 102.193 33.7011C99.9099 34.8183 98.0863 36.568 96.6834 38.7447C95.046 41.0916 93.7104 43.5829 92.5418 46.1899C91.4984 48.4244 90.378 50.4405 89.418 52.7328C89.6074 52.6365 89.707 52.6108 89.7294 52.5819C89.9413 52.2384 90.1918 51.805 90.4133 51.4326C93.1326 46.5559 95.7106 42.9408 99.2453 39.0305C102.822 34.9917 104.443 34.2629 109.172 33.0012ZM114.222 39.7271C114.161 39.7207 114.1 39.7143 114.036 39.7079C112.62 44.8415 108.187 48.0905 104.154 51.1501C96.8888 56.518 92.6991 59.1988 92.4872 59.6579C93.0009 59.7124 93.3541 59.3368 93.7971 59.1699C94.7571 58.6947 95.7106 58.2324 96.6737 57.7573C107.14 52.8227 115.041 46.1192 114.222 39.7271ZM88.5159 59.34C88.564 59.3818 88.6154 59.4203 88.6636 59.4588C92.3492 56.0974 96.0092 52.7007 99.8585 49.5288C104.947 44.8093 111.702 39.8042 111.651 34.6899C106.899 36.8345 103.814 41.0691 100.497 44.8061C94.1792 51.9463 92.4166 53.7024 88.5159 59.34ZM92.7794 57.7605C94.5034 56.5469 96.1504 55.1824 97.8777 53.9625C100.009 52.4535 102.231 51.057 104.27 49.4164C111.907 42.8092 112.145 40.4495 112.482 38.4943C112.203 38.7062 112.078 38.9663 111.885 39.2456C110.627 41.265 109.615 42.4914 108.203 43.9329C103.117 48.8481 97.4025 53.0667 92.3075 57.9852C92.3396 58.0141 92.3685 58.043 92.4006 58.0719C92.5258 57.9691 92.6542 57.8632 92.7794 57.7605ZM65.7118 79.9578C65.4517 79.2868 65.7824 78.863 66.1869 78.4649C67.5289 77.094 68.8131 75.7103 70.1262 74.3298C73.9627 70.2589 77.8378 66.2394 81.7257 62.2198C83.2121 61.0833 83.912 60.3321 84.7981 58.9355C86.535 55.9786 87.6587 52.6718 89.0552 49.532C91.0586 44.9731 93.6944 39.2038 95.5083 37.1523C104.199 26.4903 116.219 31.9192 115.779 40.6261C115.789 44.1191 114.588 47.0182 112.373 49.5031C109.008 53.2176 104.507 55.0444 100.289 57.144C95.3285 59.6611 90.1243 62.2423 88.853 63.3628C88.2494 63.8347 87.6876 64.3323 87.145 64.8781C86.1465 66.0499 85.1994 67.1704 84.0982 68.2459C67.0634 85.7944 70.8453 82.3367 69.1085 82.8504C68.5274 83.0527 68.2256 83.8104 67.6702 84.0768C66.3731 84.8538 64.7069 83.8039 64.1836 82.5294C63.6956 81.3608 64.9156 80.6288 65.7118 79.9578Z" fill="#FCF9F2"/>
</g>
<path d="M66.7584 39.6077C65.6572 38.0603 64.3377 36.6605 62.8319 35.4662C61.7307 34.487 60.2796 33.9444 59.3518 35.2736C57.5699 37.5883 62.2861 41.3575 63.6634 42.6288C64.7069 41.6111 65.6861 40.6544 66.7584 39.6077ZM62.3696 44.3336C59.7402 41.579 57.1558 39.1358 56.9407 37.7489C56.2376 34.4934 59.3839 31.9668 62.498 33.1482C64.9541 33.9605 67.4005 36.8596 68.4374 38.3492C71.2241 36.7183 72.6753 36.76 74.9612 38.9239C76.1811 39.9834 77.3594 41.0364 78.5473 42.1312C80.6855 44.1153 82.7016 46.186 84.7114 48.2921C86.5382 50.273 87.3119 50.5491 86.4258 52.2314C85.6746 52.5011 85.2604 52.0195 84.8045 51.5058C84.3422 50.9986 83.9024 50.5106 83.4401 50.0065C80.6919 47.0111 76.4733 42.4426 74.3865 40.8727C72.4024 39.4793 71.6126 38.1951 69.8147 39.8261C69.0474 40.4617 68.3154 41.0364 67.6605 41.7748C62.5526 47.5248 62.5237 46.6548 66.1773 51.0371C69.9496 55.1882 73.9595 59.0954 78.0432 62.9319C78.756 63.6479 78.528 64.1166 77.8249 64.5372C77.1154 64.8358 76.7205 64.4248 76.3417 64.0492C75.8344 63.574 75.3496 63.1085 74.8552 62.6237C72.8647 60.6429 70.9159 58.6267 68.8901 56.6811C61.8335 49.7336 59.721 48.3531 62.3696 44.3336Z" fill="#FCF9F2"/>
<mask id="mask2_1944_5960" style="mask-type:luminance" maskUnits="userSpaceOnUse" x="83" y="61" width="30" height="27">
<path d="M83.4111 61.0479H112.376V87.7816H83.4111V61.0479Z" fill="white"/>
</mask>
<g mask="url(#mask2_1944_5960)">
<path d="M102.456 81.0617C103.454 82.7279 106.726 85.932 107.984 86.1374C109.352 86.4553 110.299 85.1005 110.216 83.9094C110.065 81.9702 106.347 78.8528 105.58 78.0245C104.495 79.0808 103.493 80.0536 102.456 81.0617ZM95.3029 61.5676C97.4797 60.5434 97.4154 61.2048 98.5198 62.2129C99.804 63.4874 101.088 64.7427 102.376 66.0141C107.252 70.9069 109.432 72.5795 106.735 76.4161C112.601 82.1308 112.158 82.5802 112.322 83.1677C112.489 84.0988 112.19 85.1679 111.609 86.0604C110.267 88.205 107.413 88.1344 105.467 87.0043C103.551 85.7875 102.106 84.0795 100.693 82.3459C96.6 84.5964 95.441 82.7504 93.8646 81.4373C92.0989 79.938 90.4551 78.3327 88.8145 76.705C87.7133 75.5493 83.193 71.3564 83.4273 71.0257C83.3439 70.7335 83.7998 70.2166 84.1979 70.0368C85.1321 69.6419 85.6972 70.7239 86.2494 71.2344C88.7054 73.806 95.2227 81.2479 97.8071 81.6299C98.6964 81.7969 101.592 78.8849 102.234 78.2107C106.398 73.5748 106.122 73.4753 104.164 71.0289C101.422 67.6611 98.1956 64.7909 95.3029 61.5676Z" fill="#FCF9F2"/>
</g>
<path d="M79.6649 61.7987C78.4321 61.2626 77.607 60.0554 76.5572 59.2271C73.3499 56.312 66.9674 50.379 65.8438 48.4945C65.3365 46.9663 67.5421 47.0241 68.1682 47.9134C79.7677 60.0041 82.4003 61.4103 79.6649 61.7987Z" fill="#FCF9F2"/>
<path d="M87.3861 67.5485C87.5947 67.6095 88.0795 67.9305 88.3043 68.1745C90.497 70.1522 92.5742 72.1523 94.6225 74.2584C95.3031 75.1284 98.7416 77.8188 96.9565 78.538C95.5921 79.0003 94.9147 77.7675 94.1602 77.0612C92.6962 75.5426 91.2547 74.0401 89.765 72.5472C88.1373 70.8938 85.8868 68.8423 85.8771 68.6722C85.7294 67.9402 86.5834 67.4843 87.3861 67.5485Z" fill="#FCF9F2"/>
<path d="M17.2785 115.908C18.7938 115.429 20.0331 114.412 20.3413 112.623C20.8935 109.4 17.5771 107.233 14.3152 106.674L7.78828 105.557C5.36115 105.14 3.07528 105.076 2.81844 106.588C2.70929 107.227 3.00465 108.135 3.28076 108.675C4.1219 110.456 3.07207 119.452 1.34483 120.919C0.811889 121.401 0.144107 122.188 0.0221089 122.903C-0.244362 124.457 1.93877 125.119 4.3659 125.533L12.2059 126.875C15.6283 127.462 20.1936 125.908 20.8357 122.168C21.3109 119.385 19.5579 117.198 17.2785 115.908ZM12.8448 124.57C12.1192 124.977 11.628 124.974 10.9121 124.852C8.72253 124.477 8.31159 120.187 9.02753 116.011C15.8402 115.211 15.1692 123.205 12.8448 124.57ZM13.7694 108.177C14.0873 108.232 14.3923 108.366 14.5977 108.607C16.2768 110.286 12.8159 114.691 9.43526 114.113C10.2732 110.652 11.8592 107.849 13.7694 108.177Z" fill="#16336B"/>
<path d="M31.1704 115.489C28.5249 115.158 26.6275 115.694 25.5006 116.571C21.6962 119.678 28.1621 121.99 29.4367 119.585C29.9183 118.667 30.1944 116.465 31.3245 117.177C32.4513 117.926 32.5444 120.786 29.7128 121.287C27.0031 121.804 23.5679 121.293 22.4282 123.592C21.0926 126.151 23.1056 128.6 26.4702 129.021C29.1156 129.352 30.3517 127.92 31.4721 128.058C32.6343 128.202 33.9635 129.955 36.0856 130.222C37.6491 130.414 39.0489 129.939 39.264 129.194C39.4149 128.642 38.7953 128.401 38.41 127.907C36.0053 125.001 40.8243 116.693 31.1704 115.489ZM28.1075 125.034C28.0658 123.727 29.6935 123.403 30.6856 122.629C31.2699 122.173 31.623 122.298 31.6583 122.671C31.729 123.412 31.668 124.542 31.2057 125.949C31.0965 126.18 30.8429 126.597 30.3902 126.623C29.4078 126.661 28.1268 126.176 28.1075 125.034Z" fill="#16336B"/>
<path d="M52.7415 122.011L55.5089 120.326C56.7417 119.574 58.1255 119.481 58.7804 118.884C59.3904 118.367 57.2683 118.037 56.3436 117.963C55.6598 117.908 54.1669 117.831 53.6821 118.319C53.3322 118.656 53.8876 119.308 53.3707 119.712L48.6417 122.656C48.9467 118.268 49.836 113.195 50.0126 112.521C50.8216 109.953 46.8438 111.619 45.3766 112.232C43.9094 112.845 41.7552 113.484 41.4983 114.678C41.3667 115.317 41.9061 115.645 42.2657 116.239C43.0233 117.391 42.7408 119.436 42.5321 122.053C42.3491 124.345 42.0505 127.604 41.1452 128.3C40.7535 128.634 40.2944 128.801 40.3361 129.331C40.4004 130.551 43.3219 130.984 44.8918 131.11C46.4618 131.235 49.5759 131.277 49.8328 130.082C49.9516 129.607 49.4796 129.447 49.1489 129.016C48.7765 128.583 48.6545 127.601 48.5518 126.336C48.4202 124.907 49.3608 124.82 49.7268 124.811C51.3096 124.734 52.1893 126.422 52.0865 127.71C51.8265 131.01 54.793 131.893 56.4014 132.021C57.9714 132.147 60.0004 132.105 60.2572 130.911C60.3824 130.352 59.8334 130.147 59.3808 129.707C57.9874 128.381 57.6246 121.709 52.7415 122.011Z" fill="#16336B"/>
<path d="M75.8997 126.542C73.2125 129.351 69.5686 129.582 68.4546 126.834C68.9715 127.098 69.6938 127.204 70.3809 127.229C73.4084 127.338 76.9945 124.279 75.8708 121.813C74.9719 119.88 72.5897 118.744 69.8865 118.644C65.7706 118.497 62.268 121.518 62.1267 125.393C61.9855 129.226 65.2602 132.498 69.376 132.645C72.9653 132.777 76.0763 130.549 76.9174 127.428L77.0138 127.027C77.1197 126.343 76.5322 125.878 75.8997 126.542ZM69.8287 120.221C70.8368 120.256 70.9363 124.218 68.461 125.624C68.339 125.659 68.2555 125.698 68.2106 125.775C68.1432 125.409 68.1175 125.046 68.1335 124.603C68.1978 122.866 68.7789 120.182 69.8287 120.221Z" fill="#16336B"/>
<path d="M101.67 114.406C101.657 112.872 99.3901 112.57 96.9277 112.596L96.6066 112.599C94.1024 112.621 91.8455 112.968 91.8583 114.503C91.8647 114.988 92.1537 115.549 92.4009 116.031C93.3447 117.758 91.1905 120.404 89.6302 121.71C88.5098 122.651 87.3058 123.714 86.516 125.335C86.2817 122.028 86.683 117.623 87.4375 116.525C87.797 116.037 88.2337 115.183 88.2272 114.538C88.2112 113.003 85.9478 112.705 83.4853 112.727L83.1193 112.731C80.6569 112.756 78.3999 113.1 78.416 114.634C78.4224 115.283 78.8751 116.124 79.2411 116.606C80.3904 118.211 80.9619 127.248 79.5268 128.998C79.087 129.57 78.5733 130.462 78.5797 131.188C78.5958 132.764 80.8592 133.024 83.3216 132.998L83.6844 132.995C86.1468 132.969 88.4038 132.664 88.391 131.091C88.3878 130.767 88.2625 130.366 88.0956 130.003C86.7761 127.313 89.1326 124.622 90.8534 123.152C91.8166 122.336 92.8568 121.437 93.6112 120.179C94.0061 123.444 93.9291 127.727 93.0109 128.866C92.5325 129.435 92.0156 130.327 92.022 131.056C92.0381 132.629 94.3015 132.889 96.8057 132.867L97.1299 132.864C99.5924 132.838 101.849 132.533 101.833 130.96C101.827 130.231 101.294 129.348 100.844 128.786C99.374 127.065 99.7689 118.018 100.922 116.39C101.243 115.903 101.676 115.052 101.67 114.406Z" fill="#16336B"/>
<path d="M110.316 118.26C106.165 118.494 102.996 121.827 103.215 125.696C103.433 129.567 106.955 132.483 111.106 132.248C115.257 132.014 118.471 128.717 118.253 124.848C118.031 120.979 114.467 118.026 110.316 118.26ZM111.026 130.797C110.098 130.848 109.234 128.431 109.064 125.448C108.897 122.466 109.485 120.003 110.413 119.952C111.34 119.901 112.243 122.276 112.41 125.259C112.58 128.242 111.95 130.742 111.026 130.797Z" fill="#16336B"/>
<path d="M138.362 127.533C136.327 125.783 136.786 118.518 136.915 117.33C137.223 114.701 133.601 117.048 132.301 117.863C130.965 118.727 128.959 119.777 128.917 120.997C128.895 121.607 129.492 121.873 129.945 122.355C130.307 122.766 130.927 123.681 131.148 125.119L131.177 125.398C131.287 126.525 131.27 127.581 131.036 128.092C130.734 128.727 130.33 129.174 129.848 129.222C129.527 129.254 129.238 129.199 128.936 129.026C126.567 126.785 127.306 119.452 127.431 118.261C127.742 115.635 124.156 117.975 122.817 118.797C121.523 119.655 119.552 120.659 119.427 121.847L119.443 122.011C119.459 122.576 120.008 122.807 120.461 123.289C121.411 124.29 121.543 126.021 121.655 127.186L121.674 127.389C122.169 130.342 125.903 131.193 128.314 130.955L128.474 130.939C128.879 130.901 129.119 130.875 129.312 130.776C130.693 130.397 131.222 129.572 132.025 129.495C132.869 129.411 134.263 130.371 136.07 130.191C137.637 130.037 139.184 129.681 139.226 128.461C139.258 127.97 138.725 127.902 138.362 127.533Z" fill="#16336B"/>
<path d="M153.56 116.418C152.382 114.707 148.95 114.373 146.15 114.764L146.073 114.774C142.114 115.329 139.151 117.458 139.861 120.213C140.795 123.953 149.213 123.221 148.696 126.515C148.468 127.812 146.452 128.258 146.442 126.139C146.381 122.803 138.92 124.258 140.808 126.967C141.986 128.679 145.376 129.019 148.214 128.621L148.295 128.611C152.173 128.065 155.184 125.401 154.529 123.333C153.486 119.972 145.367 120.216 145.672 116.87C145.819 115.586 147.919 115.169 147.925 117.246C147.986 120.582 155.448 119.127 153.56 116.418Z" fill="#16336B"/>
<path d="M169.627 118.692C167.592 122.006 164.08 123.001 162.413 120.548C162.972 120.696 163.701 120.648 164.378 120.526C167.361 119.996 170.221 116.249 168.603 114.076C167.319 112.377 164.748 111.767 162.086 112.239C158.031 112.962 155.241 116.654 155.922 120.471C156.593 124.247 160.481 126.754 164.536 126.035C168.074 125.406 170.645 122.571 170.812 119.344L170.819 118.93C170.78 118.24 170.106 117.909 169.627 118.692ZM162.362 113.79C163.354 113.613 164.285 117.469 162.163 119.363C162.051 119.424 161.977 119.476 161.951 119.562C161.807 119.219 161.704 118.869 161.627 118.432C161.322 116.721 161.328 113.973 162.362 113.79Z" fill="#16336B"/>
</svg>
